Coordinates
version=1
nRows=17
nColumns=40
inDegrees=yes

Units are S.I. units (second, meters, Newtons, ...)
Angles are in degrees.

endheader
time	pelvis_tilt	pelvis_list	pelvis_rotation	pelvis_tx	pelvis_ty	pelvis_tz	hip_flexion_r	hip_adduction_r	hip_rotation_r	knee_angle_r	knee_angle_r_beta	ankle_angle_r	subtalar_angle_r	mtp_angle_r	hip_flexion_l	hip_adduction_l	hip_rotation_l	knee_angle_l	knee_angle_l_beta	ankle_angle_l	subtalar_angle_l	mtp_angle_l	lumbar_extension	lumbar_bending	lumbar_rotation	arm_flex_r	arm_add_r	arm_rot_r	elbow_flex_r	pro_sup_r	wrist_flex_r	wrist_dev_r	arm_flex_l	arm_add_l	arm_rot_l	elbow_flex_l	pro_sup_l	wrist_flex_l	wrist_dev_l
     18.03000000	     -2.76454971	     -4.90514297	      2.92330604	      1.05138587	      0.93211634	      0.51272647	     11.45210628	      3.37407947	    -17.26860857	     17.53914108	     17.53914108	     11.47311779	      3.77750944	     -3.02568717	     29.84560165	    -15.68109356	     -1.42257889	     51.23090677	     51.23090677	     11.16838815	    -18.12959172	     12.68656565	    -10.97133305	      6.28317107	      4.63974015	     16.09254137	    -19.51890923	     -0.83081877	     47.74432511	     45.66660650	      0.00000000	      0.00000000	      2.82455233	    -10.07676393	     -9.63635885	     39.60887912	     45.40608590	      0.00000000	      0.00000000
     18.04350000	     -2.80942481	     -4.78094438	      3.16499794	      1.05075154	      0.93202660	      0.51299303	     11.13217478	      3.29129050	    -17.25247592	     17.52976522	     17.52976522	     11.75668773	      3.49957168	     -3.11611723	     30.35743275	    -15.51654214	     -1.68134525	     48.17494740	     48.17494740	     11.27452329	    -17.94452470	     12.83382711	    -10.94852643	      6.24913249	      4.81131214	     17.07639135	    -19.69387413	     -0.95080884	     48.19964535	     45.66028873	      0.00000000	      0.00000000	      2.22494874	    -10.08558762	     -9.73512584	     39.19820866	     45.41762494	      0.00000000	      0.00000000
     18.05700000	     -2.83247594	     -4.65352268	      3.40001313	      1.05013826	      0.93193685	      0.51319271	     10.79015872	      3.19121229	    -17.30317697	     17.53560810	     17.53560810	     12.05259298	      3.33309768	     -3.23954986	     30.62107947	    -15.28355047	     -1.95408134	     44.76630608	     44.76630608	     11.14209941	    -17.67589963	     12.81943743	    -10.95612588	      6.21378975	      4.88950712	     18.11640574	    -19.82164528	     -1.03965588	     48.69074299	     45.65146765	      0.00000000	      0.00000000	      1.61758875	    -10.10421512	     -9.83793703	     38.64463086	     45.42970290	      0.00000000	      0.00000000
     18.07050000	     -2.80881798	     -4.55971008	      3.65569764	      1.04961422	      0.93180217	      0.51318566	     10.39571228	      3.08772545	    -17.55711677	     17.55704538	     17.55704538	     12.33048126	      3.33925264	     -3.44722992	     30.50124863	    -15.02479074	     -2.27253134	     40.81046634	     40.81046634	      9.77086850	    -17.55072800	      9.67552218	    -11.00385904	      6.29291421	      4.78289235	     19.41237418	    -19.90854863	     -0.83869609	     48.92925746	     45.63468732	      0.00000000	      0.00000000	      1.27825850	     -9.93313656	    -10.60983633	     37.11981003	     45.57142949	      0.00000000	      0.00000000
     18.08400000	     -2.97799506	     -4.63165102	      3.80407512	      1.04890601	      0.93123850	      0.51333373	     10.26996398	      3.18535550	    -17.56542584	     17.60775835	     17.60775835	     12.62107367	      3.25226588	     -3.58437422	     30.75464528	    -14.91227113	     -2.44812603	     37.27002305	     37.27002305	      9.63139347	    -16.70777474	     10.15145109	    -10.81272519	      6.46108538	      5.12891693	     20.25775234	    -20.20412372	     -0.93704522	     49.28494232	     45.63083089	      0.00000000	      0.00000000	      0.73462379	     -9.86354516	    -10.64645567	     36.87560652	     45.57167504	      0.00000000	      0.00000000
     18.09750000	     -2.99173040	     -4.42061815	      3.88196397	      1.04834032	      0.93113513	      0.51331006	      9.90932583	      2.99631145	    -17.49113709	     17.58546213	     17.58546213	     12.91000318	      3.17584476	     -3.68117819	     30.43106860	    -14.47745758	     -2.81497794	     33.35459272	     33.35459272	      9.37391178	    -15.65516086	     10.48509537	    -10.88156196	      6.29520613	      5.20591374	     21.20672979	    -20.19038470	     -0.98333559	     49.79232515	     45.61914188	      0.00000000	      0.00000000	      0.13639679	     -9.88816251	    -10.70473400	     36.39209392	     45.57613586	      0.00000000	      0.00000000
     18.11100000	     -2.99206569	     -4.42476022	      3.97092183	      1.04778397	      0.93078167	      0.51317084	      9.55310964	      3.00553848	    -17.59712197	     17.58027560	     17.58027560	     13.25178274	      3.34733131	     -3.69779340	     30.06155758	    -14.24324839	     -3.09196874	     29.42156961	     29.42156961	      8.03788005	    -14.58671898	      8.07389632	    -10.91364055	      6.43370545	      5.05577421	     22.46197660	    -20.03277131	     -0.75010751	     50.04858888	     45.60059663	      0.00000000	      0.00000000	     -0.24463387	     -9.78927337	    -11.37783872	     34.96698530	     45.70451514	      0.00000000	      0.00000000
     18.12450000	     -3.12492841	     -4.36081882	      4.00799889	      1.04711780	      0.93029361	      0.51292109	      9.37136658	      2.94887262	    -17.53009139	     17.60753761	     17.60753761	     13.54625645	      3.21192943	     -3.80580378	     29.92111968	    -13.92729887	     -3.39516962	     25.97680781	     25.97680781	      7.84379467	    -12.89874987	      8.54497981	    -10.83886378	      6.43760222	      5.26174005	     23.29062185	    -20.08231800	     -0.80695955	     50.47583920	     45.59168363	      0.00000000	      0.00000000	     -0.78315082	     -9.66297669	    -11.42004928	     34.68179715	     45.70731880	      0.00000000	      0.00000000
     18.13800000	     -3.35053778	     -4.55580586	      4.05761124	      1.04625059	      0.92945819	      0.51256004	      9.34721240	      3.13641688	    -17.57365593	     17.68601305	     17.68601305	     13.79798330	      3.13778550	     -3.92933710	     30.10120681	    -13.82472656	     -3.40833855	     23.05602492	     23.05602492	      7.65777155	    -11.24340685	      8.95164211	    -10.65616797	      6.77063132	      5.46611501	     24.19130394	    -20.22967380	     -0.89565548	     50.88920657	     45.58553132	      0.00000000	      0.00000000	     -1.29126078	     -9.47593338	    -11.41934380	     34.39144869	     45.70205632	      0.00000000	      0.00000000
     18.15150000	     -3.34422534	     -4.29718519	      4.00294150	      1.04571703	      0.92933883	      0.51206324	      8.91109409	      2.90386054	    -17.31930622	     17.55124844	     17.55124844	     14.10488312	      3.05532888	     -3.95873209	     29.66266941	    -13.38341097	     -4.15290733	     20.10147403	     20.10147403	      7.50436399	     -9.06431108	      9.15424526	    -10.77732754	      6.51245051	      5.33553974	     25.05080276	    -19.76846263	     -0.86632802	     51.47693502	     45.56683794	      0.00000000	      0.00000000	     -1.86013341	     -9.49114896	    -11.46234225	     33.77795702	     45.70596243	      0.00000000	      0.00000000
     18.16500000	     -3.46534368	     -4.29388708	      3.98295766	      1.04500119	      0.92884811	      0.51142326	      8.66093799	      2.91734909	    -17.17009830	     17.44984128	     17.44984128	     14.35765279	      2.96139001	     -3.98176186	     29.64641855	    -13.14928432	     -4.61941470	     17.87286189	     17.87286189	      7.34430480	     -7.16042354	      9.17126052	    -10.73712364	      6.57433783	      5.26452618	     25.92985562	    -19.48687825	     -0.85539271	     51.97954889	     45.55225578	      0.00000000	      0.00000000	     -2.32900324	     -9.36184184	    -11.51227452	     33.17668248	     45.71356187	      0.00000000	      0.00000000
     18.17850000	     -3.59512843	     -4.25961820	      3.96867118	      1.04429189	      0.92838737	      0.51058949	      8.39852414	      2.89172448	    -17.00207576	     17.31809087	     17.31809087	     14.61046017	      2.81822977	     -3.99760929	     29.69380097	    -12.85515865	     -5.05521071	     16.15707088	     16.15707088	      7.15730975	     -5.63270406	      9.12424549	    -10.67966775	      6.60029446	      5.19268517	     26.71884617	    -19.18203556	     -0.82647275	     52.47389369	     45.53678888	      0.00000000	      0.00000000	     -2.74934162	     -9.23171671	    -11.56642928	     32.58223814	     45.72293673	      0.00000000	      0.00000000
     18.19200000	     -3.84214593	     -4.31746645	      3.96689928	      1.04344872	      0.92765371	      0.50950107	      8.29282048	      2.92381676	    -16.90066362	     17.21748463	     17.21748463	     14.85112863	      2.76612338	     -4.05471743	     30.09752977	    -12.58835569	     -5.07789609	     15.24742154	     15.24742154	      7.07504241	     -4.92207055	      9.14524277	    -10.49039296	      6.74443186	      5.33439129	     27.38780000	    -19.16923141	     -0.86382055	     52.82001575	     45.52942583	      0.00000000	      0.00000000	     -3.07581572	     -8.99561747	    -11.54945140	     32.33515712	     45.71721168	      0.00000000	      0.00000000
     18.20550000	     -3.93441760	     -4.31507512	      4.00802058	      1.04280504	      0.92711395	      0.50833352	      8.01207052	      2.89021401	    -16.84331825	     17.16720584	     17.16720584	     15.18036993	      2.68796504	     -4.13990477	     30.44401761	    -12.27880605	     -5.03137732	     15.03314962	     15.03314962	      7.00727721	     -4.67511088	      9.12656347	    -10.45700502	      6.74546712	      5.59792066	     27.65192416	    -19.02113311	     -0.83775786	     52.97695001	     45.52391237	      0.00000000	      0.00000000	     -3.30157381	     -8.93285817	    -11.54758672	     32.22265794	     45.71368681	      0.00000000	      0.00000000
     18.21900000	     -4.03168357	     -4.14346258	      3.98101441	      1.04237969	      0.92704778	      0.50696976	      7.53597627	      2.74337558	    -16.52443496	     16.73584191	     16.73584191	     15.28883367	      2.51000501	     -4.04774738	     30.16461322	    -11.81814019	     -5.51739735	     14.25947189	     14.25947189	      6.69970734	     -3.96148371	      8.85433430	    -10.41921574	      6.60182789	      4.88155701	     28.48458508	    -18.20852351	     -0.74639271	     54.00622534	     45.48686183	      0.00000000	      0.00000000	     -3.83402874	     -8.80945031	    -11.51456248	     31.34598894	     45.70790187	      0.00000000	      0.00000000
     18.23250000	     -4.09629969	     -4.16758889	      4.02428099	      1.04203202	      0.92656993	      0.50539608	      7.07264603	      2.76565389	    -16.35416309	     16.40906421	     16.40906421	     15.48771924	      2.42053270	     -4.06049041	     30.38523173	    -11.52931340	     -5.35541508	     14.83134034	     14.83134034	      6.55151385	     -4.24343643	      8.16021793	    -10.38742685	      6.68741982	      4.68117887	     28.92221607	    -17.86891930	     -0.62638730	     54.67038917	     45.46015050	      0.00000000	      0.00000000	     -4.05079121	     -8.65565191	    -11.54125783	     30.73465677	     45.71655683	      0.00000000	      0.00000000
     18.24600000	     -4.21828285	     -4.19795325	      4.04949395	      1.04177873	      0.92619115	      0.50385252	      6.80490634	      2.73322260	    -16.33706284	     16.36675268	     16.36675268	     15.72312205	      2.37832215	     -4.11951199	     30.25454717	    -11.24634854	     -5.34244189	     15.05014797	     15.05014797	      6.26330120	     -4.22453283	      8.20348373	    -10.17003917	      6.71117476	      4.84983021	     29.04781101	    -17.79912589	     -0.60646057	     54.75089719	     45.45708677	      0.00000000	      0.00000000	     -4.15736581	     -8.59674574	    -11.54195873	     30.67943209	     45.71518154	      0.00000000	      0.00000000
